Coordinates
version=1
nRows=5
nColumns=46
inDegrees=yes

Units are S.I. units (second, meters, Newtons, ...)
Angles are in degrees.

endheader
time	pelvis_tilt	pelvis_list	pelvis_rotation	pelvis_tx	pelvis_ty	pelvis_tz	bb_angle	bb_tx	bb_ty	bb_tz	hip_flexion_r	hip_adduction_r	hip_rotation_r	knee_angle_r	knee_angle_r_beta	ankle_angle_r	subtalar_angle_r	mtp_angle_r	crank_angle_r	hip_flexion_l	hip_adduction_l	hip_rotation_l	knee_angle_l	knee_angle_l_beta	ankle_angle_l	subtalar_angle_l	mtp_angle_l	crank_angle_l	lumbar_extension	lumbar_bending	lumbar_rotation	arm_flex_r	arm_add_r	arm_rot_r	elbow_flex_r	pro_sup_r	wrist_flex_r	wrist_dev_r	arm_flex_l	arm_add_l	arm_rot_l	elbow_flex_l	pro_sup_l	wrist_flex_l	wrist_dev_l
      7.50500000	    -20.58233912	      6.97059105	      1.74512209	      0.07915095	      0.98591972	     -0.19663763	      0.00000000	      0.50000000	      0.00000000	      0.25000000	     74.81635776	     -6.77498939	     10.16866474	    106.71955187	      1.86260756	      3.89658684	    -13.93483541	      0.00000000	      0.00000000	     68.40417557	     -0.92843908	     -4.56210313	     53.55817928	      0.93476657	      2.17566770	     -6.31639269	      0.00000000	      0.00000000	    -51.59203635	     -2.10775648	     -8.61784612	     82.27397731	    -16.86662657	     31.94817612	     69.94534169	     48.51996806	      0.00000000	      0.00000000	     83.28489280	    -27.92804681	     32.43565801	     74.28010492	     46.46465540	      0.00000000	      0.00000000
      7.51000000	    -20.60300460	      6.25503566	      1.67521564	      0.07881012	      0.98483521	     -0.19813546	      0.00000000	      0.50000000	      0.00000000	      0.25000000	     76.46482848	     -6.26125481	     10.11638061	    108.75266531	      1.89809208	      3.83367635	    -13.61146908	      0.00000000	      0.00000000	     66.96429513	     -1.15670386	     -4.34512173	     51.59104086	      0.90043353	      1.70951483	     -5.98544304	      0.00000000	      0.00000000	    -51.40427539	     -1.29590793	     -8.10965594	     82.37523795	    -16.65960162	     31.84296097	     70.01583649	     48.51318771	      0.00000000	      0.00000000	     83.01655356	    -28.10332903	     32.27497112	     74.34159481	     46.47186184	      0.00000000	      0.00000000
      7.51500000	    -20.50540440	      5.93132173	      1.75758087	      0.07873191	      0.98469066	     -0.20001807	      0.00000000	      0.50000000	      0.00000000	      0.25000000	     78.03494260	     -6.21757791	     10.43651220	    110.67398538	      1.93162544	      4.07063515	    -12.55475440	      0.00000000	      0.00000000	     65.15742578	     -0.95125188	     -4.35310106	     49.30776644	      0.86058287	      0.74038428	     -6.32233209	      0.00000000	      0.00000000	    -51.48260447	     -0.33469531	     -8.16138611	     82.92120048	    -15.91175079	     32.21838834	     69.76929981	     48.52857600	      0.00000000	      0.00000000	     82.52457246	    -28.93481389	     31.70279622	     74.74082940	     46.57190030	      0.00000000	      0.00000000
      7.52000000	    -20.55217367	      5.46547608	      1.66518122	      0.07869485	      0.98453428	     -0.20140767	      0.00000000	      0.50000000	      0.00000000	      0.25000000	     79.77174093	     -5.92157988	     10.53350519	    112.39975444	      1.96174579	      3.89820007	    -12.03244377	      0.00000000	      0.00000000	     63.51603332	     -1.08261874	     -4.36875732	     47.14654302	      0.82286241	     -0.00097144	     -6.19204420	      0.00000000	      0.00000000	    -51.40280738	      0.68099742	     -8.26813491	     83.83787991	    -14.66298034	     33.05141897	     68.64165718	     48.49588337	      0.00000000	      0.00000000	     81.44336549	    -30.43226953	     30.71862949	     76.11825507	     46.93241603	      0.00000000	      0.00000000
      7.52500000	    -20.59034218	      4.93667838	      1.40460601	      0.07877279	      0.98455785	     -0.20232568	      0.00000000	      0.50000000	      0.00000000	      0.25000000	     81.52985266	     -5.43601991	     10.50420797	    113.96198190	      1.98901181	      3.59514070	    -11.86278732	      0.00000000	      0.00000000	     61.83232314	     -1.47462558	     -4.43996275	     45.00871411	      0.78555025	     -0.42370825	     -5.68558585	      0.00000000	      0.00000000	    -51.38796081	      1.42966477	     -7.57814438	     84.13354760	    -14.40030415	     33.07223145	     68.73474300	     48.51259573	      0.00000000	      0.00000000	     81.11243734	    -30.72736700	     30.60195530	     76.07372196	     46.93096641	      0.00000000	      0.00000000
